<mxfile host="app.diagrams.net" modified="2023-07-15T21:26:12.681Z" agent="Mozilla/5.0 (Windows NT 10.0; Win64; x64) AppleWebKit/537.36 (KHTML, like Gecko) Chrome/114.0.0.0 Safari/537.36" etag="h7yKj4FKEBUgp7gGOoRj" version="21.6.2" type="device">
  <diagram id="Gi5_93j05Tq5kSE1P_lF" name="Page-2">
    <mxGraphModel dx="2096" dy="730" grid="1" gridSize="10" guides="1" tooltips="1" connect="1" arrows="1" fold="1" page="1" pageScale="1" pageWidth="850" pageHeight="1100" math="0" shadow="0">
      <root>
        <mxCell id="0" />
        <mxCell id="1" parent="0" />
        <mxCell id="ZZxpTI72Ch4nWyN-9ozh-1" value="Backend" style="shape=umlLifeline;perimeter=lifelinePerimeter;whiteSpace=wrap;html=1;container=0;collapsible=0;recursiveResize=0;outlineConnect=0;rounded=1;shadow=0;comic=0;labelBackgroundColor=none;strokeWidth=1;fontFamily=Verdana;fontSize=12;align=center;" vertex="1" parent="1">
          <mxGeometry x="620" y="90" width="100" height="1310" as="geometry" />
        </mxCell>
        <mxCell id="ZZxpTI72Ch4nWyN-9ozh-6" value="Base de datos" style="shape=umlLifeline;perimeter=lifelinePerimeter;whiteSpace=wrap;html=1;container=0;collapsible=0;recursiveResize=0;outlineConnect=0;rounded=1;shadow=0;comic=0;labelBackgroundColor=none;strokeWidth=1;fontFamily=Verdana;fontSize=12;align=center;" vertex="1" parent="1">
          <mxGeometry x="820" y="90" width="100" height="1310" as="geometry" />
        </mxCell>
        <mxCell id="ZZxpTI72Ch4nWyN-9ozh-11" value="Admin/Entrenador" style="shape=umlLifeline;perimeter=lifelinePerimeter;whiteSpace=wrap;html=1;container=0;collapsible=0;recursiveResize=0;outlineConnect=0;rounded=1;shadow=0;comic=0;labelBackgroundColor=none;strokeWidth=1;fontFamily=Verdana;fontSize=12;align=center;" vertex="1" parent="1">
          <mxGeometry x="230" y="90" width="120" height="1310" as="geometry" />
        </mxCell>
        <mxCell id="ZZxpTI72Ch4nWyN-9ozh-21" value="Frontend" style="shape=umlLifeline;perimeter=lifelinePerimeter;whiteSpace=wrap;html=1;container=0;collapsible=0;recursiveResize=0;outlineConnect=0;rounded=1;shadow=0;comic=0;labelBackgroundColor=none;strokeWidth=1;fontFamily=Verdana;fontSize=12;align=center;" vertex="1" parent="1">
          <mxGeometry x="435.13" y="90" width="100" height="1310" as="geometry" />
        </mxCell>
        <mxCell id="ZZxpTI72Ch4nWyN-9ozh-12" value="" style="html=1;points=[];perimeter=orthogonalPerimeter;rounded=0;shadow=0;comic=0;labelBackgroundColor=none;strokeWidth=1;fontFamily=Verdana;fontSize=12;align=center;" vertex="1" parent="1">
          <mxGeometry x="285" y="180" width="10" height="1200" as="geometry" />
        </mxCell>
        <mxCell id="UpYW0VXzlztQtEfswIcR-10" value="Seleccionar esgrimista" style="html=1;verticalAlign=bottom;endArrow=block;entryX=0;entryY=0;labelBackgroundColor=none;fontFamily=Verdana;fontSize=11;edgeStyle=elbowEdgeStyle;elbow=vertical;" edge="1" parent="1" target="UpYW0VXzlztQtEfswIcR-19">
          <mxGeometry x="-0.0008" relative="1" as="geometry">
            <mxPoint x="295" y="518" as="sourcePoint" />
            <mxPoint as="offset" />
          </mxGeometry>
        </mxCell>
        <mxCell id="UpYW0VXzlztQtEfswIcR-16" value="" style="endArrow=classic;html=1;rounded=0;dashed=1;exitX=0.039;exitY=0.989;exitDx=0;exitDy=0;exitPerimeter=0;entryX=1.109;entryY=0.973;entryDx=0;entryDy=0;entryPerimeter=0;" edge="1" parent="1" source="UpYW0VXzlztQtEfswIcR-19">
          <mxGeometry width="50" height="50" relative="1" as="geometry">
            <mxPoint x="460" y="788" as="sourcePoint" />
            <mxPoint x="296.0899999999999" y="642.94" as="targetPoint" />
          </mxGeometry>
        </mxCell>
        <mxCell id="UpYW0VXzlztQtEfswIcR-17" value="Mostrar opciones de&lt;br&gt;esgrimista" style="edgeLabel;html=1;align=center;verticalAlign=middle;resizable=0;points=[];spacing=-4;labelBackgroundColor=none;fontFamily=Verdana;fontSize=11;" vertex="1" connectable="0" parent="UpYW0VXzlztQtEfswIcR-16">
          <mxGeometry x="-0.1731" relative="1" as="geometry">
            <mxPoint x="-14" y="-16" as="offset" />
          </mxGeometry>
        </mxCell>
        <mxCell id="UpYW0VXzlztQtEfswIcR-19" value="" style="html=1;points=[];perimeter=orthogonalPerimeter;rounded=0;shadow=0;comic=0;labelBackgroundColor=none;strokeWidth=1;fontFamily=Verdana;fontSize=12;align=center;" vertex="1" parent="1">
          <mxGeometry x="480.13" y="518" width="10" height="126" as="geometry" />
        </mxCell>
        <mxCell id="UpYW0VXzlztQtEfswIcR-24" value="Seleccionar&amp;nbsp;&quot;Crear nuevo&quot;" style="html=1;verticalAlign=bottom;endArrow=block;entryX=0;entryY=0;labelBackgroundColor=none;fontFamily=Verdana;fontSize=11;edgeStyle=elbowEdgeStyle;elbow=vertical;" edge="1" parent="1" target="UpYW0VXzlztQtEfswIcR-31">
          <mxGeometry x="-0.0008" relative="1" as="geometry">
            <mxPoint x="295" y="1039" as="sourcePoint" />
            <mxPoint as="offset" />
          </mxGeometry>
        </mxCell>
        <mxCell id="UpYW0VXzlztQtEfswIcR-28" value="" style="endArrow=classic;html=1;rounded=0;dashed=1;exitX=0.039;exitY=0.989;exitDx=0;exitDy=0;exitPerimeter=0;entryX=1.109;entryY=0.973;entryDx=0;entryDy=0;entryPerimeter=0;" edge="1" parent="1" source="UpYW0VXzlztQtEfswIcR-31">
          <mxGeometry width="50" height="50" relative="1" as="geometry">
            <mxPoint x="460" y="1309" as="sourcePoint" />
            <mxPoint x="296.0899999999999" y="1163.94" as="targetPoint" />
          </mxGeometry>
        </mxCell>
        <mxCell id="UpYW0VXzlztQtEfswIcR-29" value="Mostrar formulario&lt;br&gt;de feedback" style="edgeLabel;html=1;align=center;verticalAlign=middle;resizable=0;points=[];spacing=-4;labelBackgroundColor=none;fontFamily=Verdana;fontSize=11;" vertex="1" connectable="0" parent="UpYW0VXzlztQtEfswIcR-28">
          <mxGeometry x="-0.1731" relative="1" as="geometry">
            <mxPoint x="-14" y="-16" as="offset" />
          </mxGeometry>
        </mxCell>
        <mxCell id="UpYW0VXzlztQtEfswIcR-31" value="" style="html=1;points=[];perimeter=orthogonalPerimeter;rounded=0;shadow=0;comic=0;labelBackgroundColor=none;strokeWidth=1;fontFamily=Verdana;fontSize=12;align=center;" vertex="1" parent="1">
          <mxGeometry x="480.13" y="1039" width="10" height="126" as="geometry" />
        </mxCell>
        <mxCell id="UpYW0VXzlztQtEfswIcR-37" value="" style="html=1;points=[];perimeter=orthogonalPerimeter;rounded=0;shadow=0;comic=0;labelBackgroundColor=none;strokeWidth=1;fontFamily=Verdana;fontSize=12;align=center;" vertex="1" parent="1">
          <mxGeometry x="666" y="1260" width="10" height="66" as="geometry" />
        </mxCell>
        <mxCell id="UpYW0VXzlztQtEfswIcR-38" value="" style="html=1;points=[];perimeter=orthogonalPerimeter;rounded=0;shadow=0;comic=0;labelBackgroundColor=none;strokeWidth=1;fontFamily=Verdana;fontSize=12;align=center;" vertex="1" parent="1">
          <mxGeometry x="866" y="1290" width="10" height="46" as="geometry" />
        </mxCell>
        <mxCell id="UpYW0VXzlztQtEfswIcR-39" value="Ingresar datos de feedback" style="html=1;verticalAlign=bottom;endArrow=block;entryX=0;entryY=0;labelBackgroundColor=none;fontFamily=Verdana;fontSize=11;edgeStyle=elbowEdgeStyle;elbow=vertical;" edge="1" parent="1" target="UpYW0VXzlztQtEfswIcR-46">
          <mxGeometry x="-0.0008" relative="1" as="geometry">
            <mxPoint x="296" y="1220" as="sourcePoint" />
            <mxPoint as="offset" />
          </mxGeometry>
        </mxCell>
        <mxCell id="UpYW0VXzlztQtEfswIcR-40" value="&lt;div style=&quot;font-size: 11px;&quot;&gt;Validar token de usuario&lt;/div&gt;&lt;div style=&quot;font-size: 11px;&quot;&gt;y rol de entreador/admin&lt;/div&gt;" style="html=1;verticalAlign=bottom;endArrow=block;entryX=0;entryY=0;labelBackgroundColor=none;fontFamily=Verdana;fontSize=11;edgeStyle=elbowEdgeStyle;elbow=vertical;" edge="1" parent="1">
          <mxGeometry relative="1" as="geometry">
            <mxPoint x="491.1300000000001" y="1260.3333333333333" as="sourcePoint" />
            <mxPoint x="666" y="1260.0000000000002" as="targetPoint" />
          </mxGeometry>
        </mxCell>
        <mxCell id="UpYW0VXzlztQtEfswIcR-41" value="" style="endArrow=classic;html=1;rounded=0;dashed=1;exitX=0.05;exitY=0.999;exitDx=0;exitDy=0;exitPerimeter=0;entryX=0.987;entryY=0.841;entryDx=0;entryDy=0;entryPerimeter=0;" edge="1" parent="1" source="UpYW0VXzlztQtEfswIcR-37" target="UpYW0VXzlztQtEfswIcR-46">
          <mxGeometry width="50" height="50" relative="1" as="geometry">
            <mxPoint x="670" y="1590" as="sourcePoint" />
            <mxPoint x="541" y="1480" as="targetPoint" />
          </mxGeometry>
        </mxCell>
        <mxCell id="UpYW0VXzlztQtEfswIcR-42" value="Enviar mensaje exitoso" style="edgeLabel;html=1;align=center;verticalAlign=middle;resizable=0;points=[];spacing=-4;fontFamily=Verdana;fontSize=11;labelBackgroundColor=none;" vertex="1" connectable="0" parent="UpYW0VXzlztQtEfswIcR-41">
          <mxGeometry x="-0.1731" relative="1" as="geometry">
            <mxPoint x="-11" y="-16" as="offset" />
          </mxGeometry>
        </mxCell>
        <mxCell id="UpYW0VXzlztQtEfswIcR-43" value="" style="endArrow=classic;html=1;rounded=0;dashed=1;exitX=0.039;exitY=0.989;exitDx=0;exitDy=0;exitPerimeter=0;entryX=1.109;entryY=0.973;entryDx=0;entryDy=0;entryPerimeter=0;" edge="1" parent="1" source="UpYW0VXzlztQtEfswIcR-46">
          <mxGeometry width="50" height="50" relative="1" as="geometry">
            <mxPoint x="461" y="1490" as="sourcePoint" />
            <mxPoint x="297.0899999999999" y="1344.94" as="targetPoint" />
          </mxGeometry>
        </mxCell>
        <mxCell id="UpYW0VXzlztQtEfswIcR-44" value="Mostrar nuevo feedback" style="edgeLabel;html=1;align=center;verticalAlign=middle;resizable=0;points=[];spacing=-4;labelBackgroundColor=none;fontFamily=Verdana;fontSize=11;" vertex="1" connectable="0" parent="UpYW0VXzlztQtEfswIcR-43">
          <mxGeometry x="-0.1731" relative="1" as="geometry">
            <mxPoint x="-14" y="-16" as="offset" />
          </mxGeometry>
        </mxCell>
        <mxCell id="UpYW0VXzlztQtEfswIcR-45" value="Guardar feedback a&lt;br&gt;esgrimista" style="html=1;verticalAlign=bottom;endArrow=block;labelBackgroundColor=none;fontFamily=Verdana;fontSize=11;edgeStyle=elbowEdgeStyle;elbow=vertical;entryX=0.074;entryY=0.427;entryDx=0;entryDy=0;entryPerimeter=0;spacingTop=0;spacing=-5;" edge="1" parent="1" source="UpYW0VXzlztQtEfswIcR-37">
          <mxGeometry x="0.0046" y="10" relative="1" as="geometry">
            <mxPoint x="670.6304347826087" y="1290.0021739130434" as="sourcePoint" />
            <mxPoint x="866.74" y="1290.0500000000002" as="targetPoint" />
            <mxPoint as="offset" />
          </mxGeometry>
        </mxCell>
        <mxCell id="UpYW0VXzlztQtEfswIcR-46" value="" style="html=1;points=[];perimeter=orthogonalPerimeter;rounded=0;shadow=0;comic=0;labelBackgroundColor=none;strokeWidth=1;fontFamily=Verdana;fontSize=12;align=center;" vertex="1" parent="1">
          <mxGeometry x="481.13" y="1220" width="10" height="126" as="geometry" />
        </mxCell>
        <mxCell id="UpYW0VXzlztQtEfswIcR-47" value="" style="html=1;points=[];perimeter=orthogonalPerimeter;rounded=0;shadow=0;comic=0;labelBackgroundColor=none;strokeWidth=1;fontFamily=Verdana;fontSize=12;align=center;" vertex="1" parent="1">
          <mxGeometry x="665" y="227" width="10" height="190" as="geometry" />
        </mxCell>
        <mxCell id="UpYW0VXzlztQtEfswIcR-48" value="" style="html=1;points=[];perimeter=orthogonalPerimeter;rounded=0;shadow=0;comic=0;labelBackgroundColor=none;strokeWidth=1;fontFamily=Verdana;fontSize=12;align=center;" vertex="1" parent="1">
          <mxGeometry x="865" y="257" width="10" height="100" as="geometry" />
        </mxCell>
        <mxCell id="UpYW0VXzlztQtEfswIcR-49" value="Ingresar a &lt;br style=&quot;font-size: 11px;&quot;&gt;&quot;Esgrimistas&quot;" style="html=1;verticalAlign=bottom;endArrow=block;entryX=0;entryY=0;labelBackgroundColor=none;fontFamily=Verdana;fontSize=11;edgeStyle=elbowEdgeStyle;elbow=vertical;" edge="1" parent="1" target="UpYW0VXzlztQtEfswIcR-55">
          <mxGeometry x="-0.0008" relative="1" as="geometry">
            <mxPoint x="295" y="187" as="sourcePoint" />
            <mxPoint as="offset" />
          </mxGeometry>
        </mxCell>
        <mxCell id="UpYW0VXzlztQtEfswIcR-50" value="&lt;div style=&quot;font-size: 11px;&quot;&gt;Validar token de usuario y&lt;/div&gt;&lt;div style=&quot;font-size: 11px;&quot;&gt;rol de admin/entrenador&amp;nbsp;&lt;/div&gt;" style="html=1;verticalAlign=bottom;endArrow=block;entryX=0;entryY=0;labelBackgroundColor=none;fontFamily=Verdana;fontSize=11;edgeStyle=elbowEdgeStyle;elbow=vertical;" edge="1" parent="1">
          <mxGeometry relative="1" as="geometry">
            <mxPoint x="490.1300000000001" y="227.33333333333326" as="sourcePoint" />
            <mxPoint x="665" y="227.00000000000023" as="targetPoint" />
          </mxGeometry>
        </mxCell>
        <mxCell id="UpYW0VXzlztQtEfswIcR-51" value="" style="endArrow=classic;html=1;rounded=0;dashed=1;exitX=-0.013;exitY=0.99;exitDx=0;exitDy=0;exitPerimeter=0;" edge="1" parent="1" source="UpYW0VXzlztQtEfswIcR-48" target="UpYW0VXzlztQtEfswIcR-47">
          <mxGeometry width="50" height="50" relative="1" as="geometry">
            <mxPoint x="680" y="407" as="sourcePoint" />
            <mxPoint x="710" y="347" as="targetPoint" />
          </mxGeometry>
        </mxCell>
        <mxCell id="UpYW0VXzlztQtEfswIcR-52" value="Encontrar esgrimistas&lt;br style=&quot;font-size: 11px;&quot;&gt;registrados" style="edgeLabel;html=1;align=center;verticalAlign=middle;resizable=0;points=[];spacing=-4;fontSize=11;fontFamily=Verdana;labelBackgroundColor=none;" vertex="1" connectable="0" parent="UpYW0VXzlztQtEfswIcR-51">
          <mxGeometry x="-0.1731" relative="1" as="geometry">
            <mxPoint x="-15" y="-16" as="offset" />
          </mxGeometry>
        </mxCell>
        <mxCell id="UpYW0VXzlztQtEfswIcR-53" value="" style="endArrow=classic;html=1;rounded=0;dashed=1;exitX=0.05;exitY=0.999;exitDx=0;exitDy=0;exitPerimeter=0;entryX=0.885;entryY=0.852;entryDx=0;entryDy=0;entryPerimeter=0;" edge="1" parent="1" source="UpYW0VXzlztQtEfswIcR-47" target="UpYW0VXzlztQtEfswIcR-55">
          <mxGeometry width="50" height="50" relative="1" as="geometry">
            <mxPoint x="669" y="557" as="sourcePoint" />
            <mxPoint x="540" y="447" as="targetPoint" />
          </mxGeometry>
        </mxCell>
        <mxCell id="UpYW0VXzlztQtEfswIcR-54" value="Retornar esgrimistas&lt;br style=&quot;font-size: 11px;&quot;&gt;registrados" style="edgeLabel;html=1;align=center;verticalAlign=middle;resizable=0;points=[];spacing=-4;fontFamily=Verdana;fontSize=11;labelBackgroundColor=none;" vertex="1" connectable="0" parent="UpYW0VXzlztQtEfswIcR-53">
          <mxGeometry x="-0.1731" relative="1" as="geometry">
            <mxPoint x="-11" y="-16" as="offset" />
          </mxGeometry>
        </mxCell>
        <mxCell id="UpYW0VXzlztQtEfswIcR-55" value="" style="html=1;points=[];perimeter=orthogonalPerimeter;rounded=0;shadow=0;comic=0;labelBackgroundColor=none;strokeWidth=1;fontFamily=Verdana;fontSize=12;align=center;" vertex="1" parent="1">
          <mxGeometry x="480.13" y="187" width="10" height="270" as="geometry" />
        </mxCell>
        <mxCell id="UpYW0VXzlztQtEfswIcR-56" value="" style="endArrow=classic;html=1;rounded=0;dashed=1;exitX=0.039;exitY=0.989;exitDx=0;exitDy=0;exitPerimeter=0;entryX=1.291;entryY=0.325;entryDx=0;entryDy=0;entryPerimeter=0;" edge="1" parent="1" source="UpYW0VXzlztQtEfswIcR-55">
          <mxGeometry width="50" height="50" relative="1" as="geometry">
            <mxPoint x="460" y="457" as="sourcePoint" />
            <mxPoint x="298" y="454" as="targetPoint" />
          </mxGeometry>
        </mxCell>
        <mxCell id="UpYW0VXzlztQtEfswIcR-57" value="Mostrar esgrimistas activos" style="edgeLabel;html=1;align=center;verticalAlign=middle;resizable=0;points=[];spacing=-4;labelBackgroundColor=none;fontFamily=Verdana;fontSize=11;" vertex="1" connectable="0" parent="UpYW0VXzlztQtEfswIcR-56">
          <mxGeometry x="-0.1731" relative="1" as="geometry">
            <mxPoint x="-11" y="-8" as="offset" />
          </mxGeometry>
        </mxCell>
        <mxCell id="UpYW0VXzlztQtEfswIcR-58" value="Buscar esgrimistas registrados" style="html=1;verticalAlign=bottom;endArrow=block;labelBackgroundColor=none;fontFamily=Verdana;fontSize=11;edgeStyle=elbowEdgeStyle;elbow=vertical;entryX=0.074;entryY=0.427;entryDx=0;entryDy=0;entryPerimeter=0;spacingTop=0;spacing=-5;" edge="1" parent="1" source="UpYW0VXzlztQtEfswIcR-47">
          <mxGeometry x="0.0046" y="10" relative="1" as="geometry">
            <mxPoint x="669.6304347826087" y="257.0021739130435" as="sourcePoint" />
            <mxPoint x="865.74" y="257.05000000000007" as="targetPoint" />
            <mxPoint as="offset" />
          </mxGeometry>
        </mxCell>
        <mxCell id="UpYW0VXzlztQtEfswIcR-59" value="" style="html=1;points=[];perimeter=orthogonalPerimeter;rounded=0;shadow=0;comic=0;labelBackgroundColor=none;strokeWidth=1;fontFamily=Verdana;fontSize=12;align=center;" vertex="1" parent="1">
          <mxGeometry x="665" y="743" width="10" height="190" as="geometry" />
        </mxCell>
        <mxCell id="UpYW0VXzlztQtEfswIcR-60" value="" style="html=1;points=[];perimeter=orthogonalPerimeter;rounded=0;shadow=0;comic=0;labelBackgroundColor=none;strokeWidth=1;fontFamily=Verdana;fontSize=12;align=center;" vertex="1" parent="1">
          <mxGeometry x="865" y="773" width="10" height="100" as="geometry" />
        </mxCell>
        <mxCell id="UpYW0VXzlztQtEfswIcR-61" value="Seleccionar &quot;Feedback&quot;" style="html=1;verticalAlign=bottom;endArrow=block;entryX=0;entryY=0;labelBackgroundColor=none;fontFamily=Verdana;fontSize=11;edgeStyle=elbowEdgeStyle;elbow=vertical;" edge="1" parent="1" target="UpYW0VXzlztQtEfswIcR-67">
          <mxGeometry x="-0.0008" relative="1" as="geometry">
            <mxPoint x="295" y="703" as="sourcePoint" />
            <mxPoint as="offset" />
          </mxGeometry>
        </mxCell>
        <mxCell id="UpYW0VXzlztQtEfswIcR-62" value="&lt;div style=&quot;font-size: 11px;&quot;&gt;Validar token de usuario y&lt;/div&gt;&lt;div style=&quot;font-size: 11px;&quot;&gt;rol de admin/entrenador&amp;nbsp;&lt;/div&gt;" style="html=1;verticalAlign=bottom;endArrow=block;entryX=0;entryY=0;labelBackgroundColor=none;fontFamily=Verdana;fontSize=11;edgeStyle=elbowEdgeStyle;elbow=vertical;" edge="1" parent="1">
          <mxGeometry relative="1" as="geometry">
            <mxPoint x="490.1300000000001" y="743.3333333333333" as="sourcePoint" />
            <mxPoint x="665" y="743.0000000000002" as="targetPoint" />
          </mxGeometry>
        </mxCell>
        <mxCell id="UpYW0VXzlztQtEfswIcR-63" value="" style="endArrow=classic;html=1;rounded=0;dashed=1;exitX=-0.013;exitY=0.99;exitDx=0;exitDy=0;exitPerimeter=0;" edge="1" parent="1" source="UpYW0VXzlztQtEfswIcR-60" target="UpYW0VXzlztQtEfswIcR-59">
          <mxGeometry width="50" height="50" relative="1" as="geometry">
            <mxPoint x="680" y="923" as="sourcePoint" />
            <mxPoint x="710" y="863" as="targetPoint" />
          </mxGeometry>
        </mxCell>
        <mxCell id="UpYW0VXzlztQtEfswIcR-64" value="Encontrar feedback" style="edgeLabel;html=1;align=center;verticalAlign=middle;resizable=0;points=[];spacing=-4;fontSize=11;fontFamily=Verdana;labelBackgroundColor=none;" vertex="1" connectable="0" parent="UpYW0VXzlztQtEfswIcR-63">
          <mxGeometry x="-0.1731" relative="1" as="geometry">
            <mxPoint x="-15" y="-16" as="offset" />
          </mxGeometry>
        </mxCell>
        <mxCell id="UpYW0VXzlztQtEfswIcR-65" value="" style="endArrow=classic;html=1;rounded=0;dashed=1;exitX=0.05;exitY=0.999;exitDx=0;exitDy=0;exitPerimeter=0;entryX=0.885;entryY=0.852;entryDx=0;entryDy=0;entryPerimeter=0;" edge="1" parent="1" source="UpYW0VXzlztQtEfswIcR-59" target="UpYW0VXzlztQtEfswIcR-67">
          <mxGeometry width="50" height="50" relative="1" as="geometry">
            <mxPoint x="669" y="1073" as="sourcePoint" />
            <mxPoint x="540" y="963" as="targetPoint" />
          </mxGeometry>
        </mxCell>
        <mxCell id="UpYW0VXzlztQtEfswIcR-66" value="Retornar feedbacks" style="edgeLabel;html=1;align=center;verticalAlign=middle;resizable=0;points=[];spacing=-4;fontFamily=Verdana;fontSize=11;labelBackgroundColor=none;" vertex="1" connectable="0" parent="UpYW0VXzlztQtEfswIcR-65">
          <mxGeometry x="-0.1731" relative="1" as="geometry">
            <mxPoint x="-11" y="-16" as="offset" />
          </mxGeometry>
        </mxCell>
        <mxCell id="UpYW0VXzlztQtEfswIcR-67" value="" style="html=1;points=[];perimeter=orthogonalPerimeter;rounded=0;shadow=0;comic=0;labelBackgroundColor=none;strokeWidth=1;fontFamily=Verdana;fontSize=12;align=center;" vertex="1" parent="1">
          <mxGeometry x="480.13" y="703" width="10" height="270" as="geometry" />
        </mxCell>
        <mxCell id="UpYW0VXzlztQtEfswIcR-68" value="" style="endArrow=classic;html=1;rounded=0;dashed=1;exitX=0.039;exitY=0.989;exitDx=0;exitDy=0;exitPerimeter=0;entryX=1.291;entryY=0.325;entryDx=0;entryDy=0;entryPerimeter=0;" edge="1" parent="1" source="UpYW0VXzlztQtEfswIcR-67">
          <mxGeometry width="50" height="50" relative="1" as="geometry">
            <mxPoint x="460" y="973" as="sourcePoint" />
            <mxPoint x="298" y="970" as="targetPoint" />
          </mxGeometry>
        </mxCell>
        <mxCell id="UpYW0VXzlztQtEfswIcR-69" value="Listar feedbacks de esgrimista" style="edgeLabel;html=1;align=center;verticalAlign=middle;resizable=0;points=[];spacing=-4;labelBackgroundColor=none;fontFamily=Verdana;fontSize=11;" vertex="1" connectable="0" parent="UpYW0VXzlztQtEfswIcR-68">
          <mxGeometry x="-0.1731" relative="1" as="geometry">
            <mxPoint x="-11" y="-10" as="offset" />
          </mxGeometry>
        </mxCell>
        <mxCell id="UpYW0VXzlztQtEfswIcR-70" value="Buscar feedback de esgrimista" style="html=1;verticalAlign=bottom;endArrow=block;labelBackgroundColor=none;fontFamily=Verdana;fontSize=11;edgeStyle=elbowEdgeStyle;elbow=vertical;entryX=0.074;entryY=0.427;entryDx=0;entryDy=0;entryPerimeter=0;spacingTop=0;spacing=-5;" edge="1" parent="1" source="UpYW0VXzlztQtEfswIcR-59">
          <mxGeometry x="0.0046" y="10" relative="1" as="geometry">
            <mxPoint x="669.6304347826087" y="773.0021739130435" as="sourcePoint" />
            <mxPoint x="865.74" y="773.0500000000001" as="targetPoint" />
            <mxPoint as="offset" />
          </mxGeometry>
        </mxCell>
      </root>
    </mxGraphModel>
  </diagram>
</mxfile>
